<?xml version="1.0" encoding="UTF-8"?>
<svg id="Layer_1" data-name="Layer 1" xmlns="http://www.w3.org/2000/svg" viewBox="0 0 168 168">
  <defs>
    <style>
      .cls-1 {
        fill: #231f20;
        font-family: Gotham-Bold, Gotham;
        font-size: 14px;
        font-weight: 700;
      }

      .cls-2 {
        fill: #fff;
      }

      .cls-3 {
        fill: #fabf78;
      }

      .cls-4 {
        letter-spacing: -.02em;
      }

      .cls-5 {
        letter-spacing: -.03em;
      }

      .cls-6 {
        fill: #f7941d;
      }

      .cls-7 {
        letter-spacing: -.01em;
      }
    </style>
  </defs>
  <text class="cls-1" transform="translate(68.64 78.73)"><tspan x="0" y="0">Fuel </tspan><tspan class="cls-7" x="-24.45" y="16.8">C</tspan><tspan x="-14.26" y="16.8">o</tspan><tspan class="cls-4" x="-4.96" y="16.8">n</tspan><tspan class="cls-5" x="3.48" y="16.8">v</tspan><tspan x="11.46" y="16.8">ersion</tspan></text>
  <g>
    <path class="cls-6" d="M155.95,42.46c22.94,39.74,9.33,90.56-30.41,113.5-39.74,22.94-90.55,9.33-113.5-30.41C-10.9,85.8,2.72,34.99,42.46,12.05c39.74-22.94,90.55-9.33,113.5,30.41Z"/>
    <path class="cls-2" d="M27.02,126.28s2.03-5.62,2.74-8.49c1.42.06,2.69-1.04,2.89-2.55l.46-3.39c.13-1-.22-1.94-.88-2.56.21-.17.57-.41.85-.34.41.1.21.32.33.93.12.61.89.72.89.72,0,0,18.26,1.42,20.08,1.44,1.82.03,1.84-1.43,1.84-1.43,0,0,4.89-25.78,5.21-27.87.32-2.08-.77-4.45-.77-4.45,0,0,1-3.91,1.82-7.2.82-3.29.2-3.95.2-3.95,0,0-3.56-7.25-4.43-9.3-.87-2.05.58-3.17.91-4.23.33-1.06-.27-2.94-.27-2.94.46-.16,1.55-2.02,2.05-2.74.46-.67.03-1.02-.03-1.06.08-.08.16-.17.26-.27.37.37.7.53.94.43.32-.14.39-.77.24-1.64.43-.45.91-.93,1.4-1.43.43.43.81.63,1.06.5.33-.16.37-.83.17-1.75.38-.38.76-.76,1.15-1.14.44.43.81.63,1.07.51.33-.16.37-.81.18-1.71.27-.26.54-.52.81-.76.09-.09.19-.17.28-.25.52.61.99.91,1.29.78.35-.17.39-.91.15-1.92.28-.2.56-.39.84-.57.34.49.67.74.94.67.33-.09.5-.68.49-1.54.77-.44,1.52-.82,2.18-1.13.5.64.96.98,1.27.85.32-.13.4-.71.29-1.54.48-.2.77-.3.77-.3,0,0,21.93-8.56,22.73-8.95.81-.39.46-1.31.46-1.31,0,0-1.12-2.31-1.61-3.33-.49-1.02-1.3-.45-1.3-.45,0,0-12.51,4.87-18.06,6.92-1.74.64-3.5,1.42-5.09,2.18-.54-.75-1.06-1.15-1.39-1.01-.35.14-.42.85-.25,1.82-.51.26-1,.51-1.45.75-.43-.75-.87-1.19-1.2-1.1-.39.11-.55.89-.47,2-.91.51-1.46.83-1.46.83-.06.03-.12.08-.2.13-.47-.51-.9-.77-1.17-.64-.33.15-.38.81-.2,1.71-.42.35-.85.72-1.19,1.01-.52-.57-.98-.86-1.27-.72-.35.17-.37.92-.12,1.93l-1.15,1c-.45-.46-.85-.68-1.12-.55-.32.15-.36.79-.18,1.68l-1.37,1.19c-.37-.35-.69-.51-.92-.41-.29.13-.38.67-.27,1.44l-2.23,1.93c-.16-.14-.27-.23-.32-.27-.38-.3-.75.06-.75.06l-2.38,1.45c-1.06-1.17-2.66.08-2.66.08,0,0-2.09,1.91-3.42,3.04-1.32,1.12-2.67.57-2.67.57,0,0-4.21-.98-7.8-1.05-3.59-.07-4.78,2.31-4.78,2.31,0,0-1.11,3.19-4.88,5.85-3.77,2.67-2.51,4.4-1.36,6.92,1.16,2.51.61,3.38.61,3.38,0,0-1.06,6.29-1.49,7.52-.43,1.23-.04,2.91,1.91,3.59,1.95.68.93,2.68.93,2.68,0,0-5.16,25.3-5.45,27.43-.04.32.37,0-.16,1.01h0s.13.06.09.39c-1.15.24-2.01,1.15-2.18,2.44l-.42,3.35c-.12.86.16,1.67.66,2.28-.56,1.65-2.22,5.65-2.22,5.65,3.45,2.57,9.56,4.9,9.56,4.9ZM35.21,102.02s-.31-.63-1.72.05l2.84-18.69s.05-4.14,2.71-5.24c2.66-1.1,5.57-.94,8.43.5,2.87,1.45,3.26,2.4,3.26,2.4,0,0-1.89-.05-4.65,1.83-2.76,1.88-2.15,8.38-2.15,8.38,0,0,3.8,14.48,4.23,15.24,0,0-.57.7-12.94-4.47ZM53.29,102.68s.05,1.72-2.57,3.41l-4.59-15.73s-.63-3.06,2.25-4.21c2.88-1.15,3.09-.95,3.09-.95,0,0,.25-.36.52,1.08.27,1.43,1.68,8.46,1.68,8.46,0,0,.23,1.21.88,1.69l-1.25,6.26ZM56.44,86.77l-1.74,8-.95-2.85,1.17-.57.1-7.52,1.42,2.93Z"/>
    <g>
      <g>
        <path class="cls-2" d="M133.07,79.65v-30.93h-19.37v30.93s-20.25,36.46-18.41,43.82c.96,3.85,2.43,5.68,5.93,6.56.2.17,1.14.33,2.81.47,1.6.17,3.5.25,5.76.29,3.48.11,8.02.17,13.61.17,5.05,0,9.36-.06,12.8-.16,2.91-.04,5.26-.13,7.15-.38,1.29-.12,2.04-.26,2.22-.41,1.88-.47,3.17-1.22,4.11-2.42.81-1.02,1.36-2.37,1.8-4.14,1.84-7.37-18.41-43.82-18.41-43.82ZM123.19,105.35c-2.51-4.5-4.12-9.68-4.12-15.57,0,5.27,1.91,9.97,4.11,14.12v1.45s.08,22.91.08,22.91h0l-.07-22.91Z"/>
        <path class="cls-3" d="M119.08,89.78c0-1.6,0-3.13,0-4.6h11.48l.43,1.23s15.86,34.24,12.97,38.33c-9.64-5.41-24.88-16.82-24.88-34.95Z"/>
        <path class="cls-6" d="M102.49,115.48c10.78-27.14,12.47-30.3,12.47-30.3h4.11c0,1.47,0,3,0,4.6,0,18.13,15.24,29.55,24.88,34.95-.17.24-.4.38-.7.4-2.7.19-25.87,0-41.7,0-.52,0-2.85-.11.93-9.65Z"/>
        <path class="cls-2" d="M126.58,58.35c.09,1.9.09,3.62.09,3.62,0,4.97.94,23.2,1.4,23.2h-3.48s1.98-26.52,1.98-26.82Z"/>
        <path class="cls-2" d="M133.05,85.01c2.21,3.59,14.25,26.7,16.23,34.23.92,3.5.14,5.8-2.58,5.8s-3.19.04-3.19.04c0,0,4.59-1.89,3.12-5.79-9.69-25.73-13.59-34.27-13.59-34.27Z"/>
        <path class="cls-2" d="M112.82,85.52c-2.14,3.52-13.46,26.3-16.2,33.72-1.4,3.8-.7,5.79,1.79,5.88,2.53.08,2.73-.05,2.73-.05,0,0-3.59-1.88-2.04-5.7,10.34-25.43,13.72-33.84,13.72-33.84Z"/>
        <path class="cls-2" d="M110.91,46.02v3.18h2.48c1.51,0,22.44,0,22.44,0v-3.19h-24.92Z"/>
        <polygon class="cls-2" points="112.02 39.79 114.59 46.51 132.18 46.51 135.05 39.79 112.02 39.79"/>
      </g>
      <g>
        <path class="cls-2" d="M92.1,101.09v-25.14h-15.75v25.14s-16.46,29.64-14.97,35.62c.78,3.13,1.98,4.62,4.82,5.33.17.14.93.27,2.28.38,1.3.14,2.85.21,4.69.24,2.83.09,6.52.14,11.06.14,4.1,0,7.61-.05,10.41-.13,2.37-.03,4.27-.11,5.81-.3,1.04-.1,1.66-.21,1.81-.33,1.53-.38,2.58-1,3.34-1.96.66-.83,1.1-1.92,1.46-3.37,1.5-5.99-14.97-35.62-14.97-35.62ZM84.07,121.98c-2.04-3.66-3.35-7.87-3.35-12.66,0,4.28,1.56,8.1,3.34,11.48v1.18s.06,18.62.06,18.62h0l-.06-18.62Z"/>
        <path class="cls-3" d="M80.72,109.33c0-1.3,0-2.54,0-3.74h9.33l.35,1s12.89,27.84,10.55,31.16c-7.83-4.39-20.23-13.67-20.23-28.41Z"/>
        <path class="cls-6" d="M67.24,130.22c8.76-22.07,10.14-24.63,10.14-24.63h3.34c0,1.2,0,2.44,0,3.74,0,14.74,12.39,24.02,20.23,28.41-.14.19-.32.31-.57.33-2.2.15-21.03,0-33.9,0-.43,0-2.32-.09.76-7.85Z"/>
        <path class="cls-2" d="M86.82,83.78c.07,1.54.07,2.94.07,2.94,0,4.04.77,18.86,1.14,18.86h-2.83s1.61-21.55,1.61-21.8Z"/>
        <path class="cls-2" d="M92.08,105.45c1.8,2.92,11.58,21.7,13.19,27.82.75,2.84.11,4.71-2.1,4.71s-2.59.03-2.59.03c0,0,3.73-1.54,2.54-4.71-7.88-20.92-11.05-27.86-11.05-27.86Z"/>
        <path class="cls-2" d="M75.63,105.87c-1.74,2.86-10.95,21.38-13.17,27.41-1.14,3.09-.57,4.71,1.46,4.78,2.06.07,2.22-.04,2.22-.04,0,0-2.92-1.52-1.66-4.63,8.41-20.67,11.15-27.51,11.15-27.51Z"/>
        <path class="cls-2" d="M74.09,73.87v2.59h2.01c1.23,0,18.24,0,18.24,0v-2.59h-20.26Z"/>
        <polygon class="cls-2" points="74.99 68.91 77.07 74.37 91.37 74.37 93.71 68.91 74.99 68.91"/>
      </g>
    </g>
  </g>
</svg>