<?xml version="1.0" encoding="UTF-8"?>
<svg id="Layer_1" data-name="Layer 1" xmlns="http://www.w3.org/2000/svg" viewBox="0 0 168 168">
  <defs>
    <style>
      .cls-1 {
        fill: #fff;
        fill-rule: evenodd;
      }

      .cls-2 {
        fill: #005387;
      }

      .cls-3 {
        fill: #231f20;
        font-family: Gotham-Bold, Gotham;
        font-size: 14px;
        font-weight: 700;
      }

      .cls-4 {
        letter-spacing: -.01em;
      }

      .cls-5 {
        letter-spacing: 0em;
      }

      .cls-6 {
        letter-spacing: -.01em;
      }
    </style>
  </defs>
  <text class="cls-3" transform="translate(30 80.32)"><tspan x="0" y="0">P</tspan><tspan class="cls-4" x="9.35" y="0">r</tspan><tspan x="14.99" y="0">et</tspan><tspan class="cls-4" x="29.39" y="0">r</tspan><tspan x="35.03" y="0">e</tspan><tspan class="cls-5" x="43.61" y="0">a</tspan><tspan x="51.83" y="0">tment &amp; </tspan><tspan x="-.33" y="16.8">De</tspan><tspan class="cls-4" x="19.2" y="16.8">c</tspan><tspan x="26.98" y="16.8">on</tspan><tspan class="cls-6" x="45" y="16.8">s</tspan><tspan x="51.89" y="16.8">truction</tspan></text>
  <g>
    <path class="cls-2" d="M155.95,42.46c22.94,39.74,9.33,90.55-30.41,113.5-39.74,22.94-90.56,9.33-113.5-30.41C-10.9,85.8,2.72,34.99,42.46,12.05c39.74-22.94,90.56-9.33,113.5,30.41Z"/>
    <path class="cls-1" d="M30.81,77.43c.29.75.41,1.9.1,2.71,1.42,1.29,3.19,2.23,4.74,3.4.43-.04.74-.49,1.26-.78,1.39-.76,4.22-.89,5.42.49,1.96-1.4,3.59-3.13,5.51-4.56-1.32-2.17-.46-5.69,1.46-6.59-.74-1.49-1.46-3-2.13-4.56-.61.07-1.23.13-1.94.1-.53,1.71-1.89,2.91-3.77,2.72-1.28-.14-2.59-1.22-2.8-2.62-.29-1.87.75-3.26,2.32-3.78-.23-.99-.2-2.09.1-3.01-.7-.62-1.68-.97-2.42-1.55-2.53,2.11-5.79.03-5.52-2.81.14-1.47,1.5-2.84,3.1-2.91,2.28-.11,3.61,1.66,3.38,3.98.61.68,1.66.92,2.32,1.55.79-.54,1.83-1.48,3.19-1.65,1.47-.19,2.75.24,3.68.97,2.11-1.67,4-3.56,6-5.34-.65-.96-.46-2.92.19-3.88.47-.7.49-.36,0-1.16-.47-.78-.76-1.5-1.26-2.23-4.66,1.03-5.54-5.89-1.45-6.5,2.85-.42,5.08,2.56,3.09,5.43.46,1.06,1.2,1.83,1.64,2.91,2-.4,3.54.27,4.36,1.46,1.65,2.41,0,6.57-3.87,6.01-.53-.08-.88-.28-1.35-.58-2.01,1.73-3.99,3.51-5.9,5.34,1.3,2.21.44,5.63-1.36,6.69.58,1.61,1.45,2.94,2.03,4.56,1.1-.25,2.25-.16,3.2.19.42-1.54,1.13-2.82,2.61-3.1,4.88-.92,5.56,6.93.39,6.5.26,1.1.19,2.44-.29,3.3,1.56,1.18,3.24,2.25,4.83,3.4.97-.45,1.68-.96,2.9-.87,3.2.21,4.73,4.57,2.22,6.79.97,1.71,1.79,3.57,2.71,5.34,1.89-.61,3.78.22,4.84,1.07.94-.32.31-.95.29-1.75-.1-3.85,5.1-5.34,7.06-2.23,2.73-.95,5.45-1.91,8.23-2.81-.23-3.17,1.5-5.13,4.16-5.72.07-2.22.06-4.53.19-6.69-.75-.25-1.46-.54-2.03-.97-1.76.08-2.93-.42-3.58-1.46-1.58.72-3.16,1.43-4.74,2.13.21,2.42-1.64,3.88-3.68,3.68-3.78-.36-3.77-6.55.39-6.59,1.15,0,1.81.54,2.52,1.16,1.5-.75,3.13-1.38,4.64-2.13-.12-2.13.7-3.31,2.03-3.97-.3-.41-.68-.74-1.16-.97-2.02,1.34-4.66-.36-5.03-1.94-.48-2.07,1.01-4.15,3.19-4.17,1.82-.02,3.93,1.77,3.1,4.36.51.85,1.45,1.26,2.13,1.94,2.04-1.82,6.84-1.18,8.03.97,1.42-.46,3.55-1.2,4.55-1.65v-1.26c1-3.34,5.41-3.11,5.9.19.49,3.3-3.7,5.12-6,2.81-1.39.52-2.79,1.16-4.11,1.75.46,3.48-1.42,5.5-4.13,6.11-.13,2.16-.16,4.47-.23,6.69,1.67.56,2.92,1.52,3.56,3.1.46-.57.98-1.08,1.64-1.45-.22-.52-.36-1.13-.59-1.65-3.18.16-4.27-4.05-2.23-5.82,2.56-2.22,6.56.56,5.22,3.88-.22.56-.62.83-1.16,1.36.24.5.35,1.14.58,1.65,2.97-.2,4.91,1.39,5.52,3.88,2.34-.14,4.8-.17,7.16-.29.72-2.58,2.25-4.34,5.61-4.27,1.17-2.49,1.83-5.47,2.9-8.05-1.75-.94-2.45-4.51-.58-6.01-.27-.52-.59-.85-.68-1.36-.82-4.71,5.88-5.22,6.48-1.36.17,1.05-.08,1.81-.58,2.52,2.56,2.29.87,7.09-2.81,6.79-1,2.62-1.81,5.42-2.81,8.05.4.12.72.86.97.88.09,0,1.09-.68,1.45-.78,2.18-.58,4.07,1.3,4.07,3.2,0,1.51-1.18,3.11-2.91,3.3-.59.06-1.29-.44-1.74.39-.04.48.83.83,1.16,1.26,2.61-1.2,4.91.57,4.93,2.82.03,2.65-3.44,4.47-5.61,2.42-.41.68-.84,1.35-1.45,1.84,1.18,2.31,2.47,4.5,3.58,6.89,3.25-.7,5.54.96,6.38,3.3,2.78-.45,5.62-.83,8.51-1.16.48-1.79,1.46-3.06,3.39-3.4.08-2.08,1.03-3.32,2.51-3.59,4.3-.79,5.47,5.33,1.75,6.4,1.14,5.03-6,6.45-7.26,2.42-2.84.43-5.69.83-8.61,1.17-.42,2.55-1.76,4.18-4.16,4.76-.03,1.41-.84,2.82-2.12,3.3-.45,1.79-1.81,2.7-3.39,2.62-3.39-.17-4.2-5.29-.96-6.3.08-.99.61-1.52,1.16-2.04-1.32-2.02-.51-5.49,1.16-6.5-1.18-2.37-2.44-4.66-3.68-6.98-3.15.77-5.47-.9-6.19-3.2-2.59.44-5.28.78-7.93,1.16-.47,1.99-1.56,3.34-3.97,3.4,1.08,1.01,1.64,3.53.49,5.14-.39.54-.94.72-1.35,1.16.11.79.34,1.47.48,2.23,1.37.4,2.21.81,2.71,1.75,1.41,2.63-.98,5.32-3.68,4.85-2.7-.48-3.46-4.78-.87-6.11-.19-.72-.41-1.4-.48-2.23-.67-.23-1.24-.24-1.74-.49-3.07-1.55-2.45-6.99,1.36-7.27-.07-1.38-1.23-3.18-.1-4.66-.93-1.43-2.31-2.4-3.39-3.69-2.3,1.77-6.29.5-7.25-1.65-2.77.91-5.49,1.87-8.23,2.81.25,2.71-2.31,4.69-4.93,3.98-.63-.17-1.27-1.07-1.84-.29.42,1,.72,3.33-.09,4.46.35.62,1.02.92,1.54,1.36,1.43-1.01,3.76-.33,4.55.77,1.3,1.83.27,4.88-2.03,5.24-2.23.34-4.8-1.77-3.68-4.36-.44-.53-1.11-.82-1.55-1.36-1.27,1.3-4.9,1.66-6.29.19-1.95,1.4-3.5,3.22-5.42,4.66,1.44,1.97.58,5.49-1.06,6.59.88,1.74,1.89,3.34,2.71,5.14,1.26-.33,2.53.1,3.29.58-.08-.64-.22-.98-.19-1.55.21-4.06,6.65-3.95,6.58.29-.04,2.46-2.66,4.02-5.13,2.72.81,2.99-.87,5.46-3.48,5.53-3.3.09-5.29-4.34-2.71-6.69-.96-1.69-1.85-3.45-2.81-5.14-.99.36-2.38.31-3.29-.1.01,2.54-3.02,4.49-5.32,2.81-2.36-1.73-1.49-6.09,2.22-6.01-.13-.8-.31-2.43.19-3.3-1.15-1.17-2.78-1.87-4.06-2.91-.9.88-2.65,1.67-4.45,1.45-.91-.11-1.64-.55-2.23-.97-2.12,1.69-4.08,3.54-6.09,5.33.15.66.37,1.01.38,1.65.14,5.72-9.2,4.85-7.45-1.16-.85-.7-1.85-1.24-2.71-1.94-2.41,1.62-5.41.03-5.41-2.62,0-4.63,7.66-4.09,6.48.87.66.88,1.86,1.24,2.61,2.04.91-.85,3.53-1.33,4.64-.29,2.21-1.64,4.08-3.61,6.19-5.33-1.33-2.09-.51-5.72,1.36-6.6-.69-1.54-1.52-2.94-2.13-4.56-1.17.18-2.54.13-3.39-.29-.24,3.44-4.81,4.24-6.29,1.55-1.21-2.19.52-5.33,3.39-4.85-.17-1.05-.2-2.6.29-3.29-1.54-1.2-3.24-2.25-4.83-3.4-.86.38-1.19.78-2.03.87-5.36.64-5.73-7.21-.97-7.66.75-.07,1.2.06,1.84.29.08.02.1.1.19.1-.7-2.44.79-4.33,2.81-4.46,1.58-.1,3.21,1.1,3.48,2.52.44,2.34-1.35,4.72-4.35,3.88M55.77,79.75c-1.22,1.6-5.03,1.96-6.58.38-1.98,1.41-3.71,3.07-5.52,4.66.56.84.79,1.92.68,3.01-.16,1.57-1.26,2.81-2.03,3.59.89,1.37,1.38,3.14,2.32,4.46.84-.39,2.32-.18,3,.19.36-4.16,6.58-3.62,6.58.29,0,1.93-1.33,3.22-3.48,3.3.24.98.05,2.2-.2,3.01,1.32,1.01,2.75,1.9,4.16,2.81,1.12-1.76,4.9-1.98,6.58-.58,1.8-1.53,3.61-3.04,5.23-4.75-1.46-2.17-.25-5.36,1.26-6.69-1-1.68-1.77-3.6-2.81-5.24-3.13.52-5.15-2.15-4.26-5.04-1.68-1.1-3.3-2.26-4.94-3.39M108.69,88.19c-.4,2.12-1.71,3.33-3.48,4.07.49.12.97.25,1.35.49.68.43,1,1.18,1.55,1.75,2.66-.31,5.16-.78,7.84-1.07.03-1.45.66-2.31,1.26-3.2-.72-.51-1.03-1.42-1.35-2.33-2.38.1-4.83.13-7.16.29"/>
  </g>
</svg>