<?xml version="1.0" encoding="UTF-8"?>
<svg id="Layer_1" data-name="Layer 1" xmlns="http://www.w3.org/2000/svg" xmlns:xlink="http://www.w3.org/1999/xlink" viewBox="0 0 168 168">
  <defs>
    <style>
      .cls-1 {
        fill: none;
      }

      .cls-2 {
        fill: #458e34;
      }

      .cls-3 {
        fill: #fff;
        fill-rule: evenodd;
      }

      .cls-4 {
        fill: #231f20;
        font-family: Gotham-Bold, Gotham;
        font-size: 14px;
        font-weight: 700;
      }

      .cls-5 {
        letter-spacing: -.01em;
      }

      .cls-6 {
        clip-path: url(#clippath);
      }
    </style>
    <clipPath id="clippath">
      <path class="cls-1" d="M156.23,84c0,39.77-32.34,72.02-72.23,72.02S11.77,123.78,11.77,84,44.11,11.98,84,11.98s72.23,32.24,72.23,72.02Z"/>
    </clipPath>
  </defs>
  <text class="cls-4" transform="translate(34.13 85.25)"><tspan x="0" y="0">Plant Bioma</tspan><tspan class="cls-5" x="85.82" y="0">s</tspan><tspan x="92.71" y="0">s</tspan></text>
  <g>
    <path class="cls-2" d="M167.1,84c0,45.89-37.2,83.1-83.09,83.1-45.89,0-83.1-37.2-83.1-83.09C.9,38.11,38.1.9,84,.9c45.89,0,83.1,37.2,83.1,83.09Z"/>
    <g class="cls-6">
      <path class="cls-3" d="M120.13,40.48c1-.86,1.51-2.02,2.33-3.05.4-.5.72-1.06,1.13-1.56.39-.46.74-1.12,1.38-1.28-.75,1.53-2.1,2.7-3.14,4.11-.74,1.01-1.42,2.07-2.21,3.19-.25.35-.61.65-.78.99-.41.79-.67,1.83-.99,2.76-.33.94-.56,1.93-.85,2.91-1.05,3.53-1.8,6.96-2.34,11.05.46-.16.37-.73.5-1.06,1.72-4.56,4.77-8.65,8.72-11.12.59-.37,1.28-.92,2.06-.85-.09.5-.6.58-1.06.71-4.01,2.45-6.87,5.75-8.79,10.35-.61,1.45-1.36,3.11-1.63,4.75-.34,2.05-.15,4.45-.42,6.38.77-1,1.21-2.19,1.84-3.26,1.86-3.14,4.09-6.15,6.37-8.93,3.2-.43,7-.21,9.57.64,1.71,3.8,2.64,8.62,2.13,13.96-.33,3.47.1,8.22-.21,11.97-.18,2.13,0,4.31.28,6.52.81-.3,1.11-1.11,1.84-1.49,2.84-2.69,6.17-5.31,10.06-7.23,1.63-.8,3.18-1.59,5.17-1.63-3.85,3.39-8.73,6.7-12.61,10.63-.57.58-1.25,1.26-1.91,1.99-.48.53-1.66,1.53-1.77,2.05-.09.45.17,1.04.28,1.56.31,1.49.69,2.94.85,4.39-.8-.34-.94-1.38-1.28-2.12-.35-.76-.79-1.52-1.06-2.27-.59.26-.89.88-1.28,1.35-2.65,3.26-5.18,6.94-7.58,10.56-.07.28.25.18.14.49-.3.43-.93.74-1.28,1.2-.19.26-.59.85-.64,1.13-.15.95.81,1.71,1.07,2.62.58-.12.78-.78,1.06-1.21,1.7-2.61,3.25-5.58,4.18-9,.14-.52.01-1.28.57-1.63.34.25.1.92,0,1.28-.32,1.17-.98,2.63-1.14,3.76,1.06-1.48,2.06-3.03,3.12-4.61.32-.47.6-1.15,1.21-1.34.05.72-.64,1.18-.99,1.7-2.59,3.8-5.07,7.93-7.72,11.76.53.07,1.01-.38,1.34-.71.39-.37.71-.89,1.06-1.28,1.41-1.57,3.06-3.23,4.75-4.61.86-.7,1.88-1.16,2.69-1.91,1.09-1.01,1.91-2.31,2.76-3.47.6-.9,1.25-1.8,1.85-2.84.16-.28.19-.86.71-.78-.07.82-.67,1.47-1.06,2.13-1.18,1.95-2.57,4.08-4.32,5.59-.61.53-1.35.87-1.99,1.35-1.78,1.36-3.46,3.13-4.96,4.89,1.02-.29,1.96-.93,2.98-1.41,2.03-.98,4.25-1.76,6.52-2.55,1.07-.37,2.17-.96,3.33-.85-.21.48-.83.44-1.2.57-2.97.99-6.13,2.11-8.86,3.47,1.67.37,3.7.36,4.6,1.49-.71.22-1.38-.45-2.12-.64-.34-.09-.74-.17-1.06-.21-3.09-.39-5.1,1.21-6.73,2.41.24.9.62,1.65.92,2.48,2.13.36,3.96,1.23,5.53,2.34.38.27,1.05.51.99,1.06-1.05-.42-1.82-1.21-2.83-1.7-1-.49-2.07-.94-3.4-1.14.45,1.87,1.16,4.09,1.77,6.02.28,2.18,1.2,4.46,1.13,6.52-.49,0-.61-.9-.78-1.41-1.28-3.93-3.24-7.85-5.25-11.13-1.11.26-2.18.59-2.91,1.28-1,.94-1.81,3.02-2.34,4.46-.63,1.72-1.16,3.57-1.42,5.31.14.29.62.23.78.5.05.35-.07.55-.07.85,1.46-.87,3.98-2.08,6.38-2.41.79-.11,3.49-.25,3.47.57-.01.79-2.84.58-3.19,1.28.17.44.76.48.71.99-.14,1.45-3.54,0-4.18,1.07.34.49,1.22.44,1.49.99-.91,1.22-3.79.46-4.82,1.56,1.18.15,2.79.81,2.13,1.99-.5.88-2.38.3-3.19.99-.04.56.21.83.43,1.14-.5,1.4.13,3.54.28,5.17.74.35,1.14-.37,1.49-.78,1.74-2.07,3.74-4.12,5.74-6.02.8-.76,1.6-1.57,2.55-2.13.18.54-.36.95-.64,1.28-2.05,2.46-4.22,5.15-6.31,7.66,3.69,1.23,7.93,1.89,8.86,5.88-.56,3.85-1.19,9.12.14,12.33.29.7.86,1.23.92,1.98-.6-.05-1.02-.7-1.34-1.13-.99-1.3-2.23-3.17-2.55-5.11-.27-1.59-.17-3.2,0-4.68.08-.72.48-1.44.5-2.2.03-1.04-.74-1.94-1.27-2.55-1.5-.66-3.62-1.47-5.46-1.77-.76-.12-2.02-.35-2.2.43-.06.25.11.5.14.78.12.92.26,1.96.43,3.04.16,1.03.41,2.11.49,2.98.5,5.04-.19,10.61-.35,15.24.06.39.67.22.99.36,1.45,2.44,2.64,5.83,3.05,9.28.07.58.15,1.27,0,1.77-.63-.08-.45-.74-.57-1.13-.78-2.72-2.16-5.32-3.68-7.37-.72,3.29-1.3,6.81-2.13,10.06-.32,1.25-.96,2.43-.99,3.76.39-.16.49-.66.64-.99.75-1.71,1.68-3.42,3.54-4.11-.14,2.42-1.94,3.78-1.77,6.73.4-.05.44-.46.71-.71,1.21-1.13,3.12-1.81,5.6-1.77.37,0,.95-.17,1.13.28-.02.33-.41.29-.78.28-2.91.9-5.41,2.21-5.95,5.46.9.08,2.06-.65,3.33-.64,1.27.01,2.32.6,3.04,1.28-.5.41-1.29.1-1.91.07-2.55-.12-4.85.54-4.6,3.12.62-.62,2.52-.91,2.83.21-.97.26-1.57.88-1.91,1.77-.1,1.68.37,2.79.64,4.11-17.79.28-36.41.14-54.35.07-.09-1.4-.2-3.01-.85-4.18-.5-.9-1.98-2.46-3.05-2.76-1.28-.37-1.96.41-2.76.78.13-1.07.4-2.06,1.21-2.34,1.18-.41,2.28.56,3.26.85-.4-.84-1.27-1.95-2.2-2.98-1.23-1.36-2.96-3.07-5.67-2.69-.62.09-.99.46-1.7.57-.13-.36.17-.56.35-.71,2.44-1.89,6.39,0,8.08,1.49-.29-3.1-.22-6.98.85-9.42.16-.36.46-.9.85-.85-.03.88-.77,1.68-.92,2.91-.12,1.05-.11,1.84,0,3.05.25,2.71-.19,5.47,1.84,6.03.15-1.53-.46-3.27-.57-4.54.27-.26.6.18.78,0-.35-6.43-1.23-13.56-1.7-20.05-.85.25-1.58.8-2.27,1.28-3.52,2.4-6.64,5.4-9.42,8.65-.55.63-1.14,1.29-1.63,1.98-.48.67-.84,1.58-1.63,1.98.04-.99.66-1.85,1.07-2.69,2.9-5.97,7.02-11.24,11.83-15.38.18-.06.38-.09.64-.07-.42-1.42-1.14-2.75-1.84-3.97-2.11-3.66-4.5-7.08-7.02-10.42-.51.69-.72,1.66-1.07,2.55-.16.41-.31.88-.5,1.28-.16.36-.32.92-.78.99-.18-.63.33-1.41.56-2.27.29-1.04.36-1.95.57-3.12.14-.77.17-1.22-.35-1.84.04-.43.43-.02.64,0,.36-1.74.26-3.83.35-6.02.15-3.45-.32-7.24.14-10.2.54-3.45,2.68-5.38,5.1-6.95-2.73-4.75-5.4-9.58-8.86-13.6-1.98,3.83-3.59,8.31-5.03,12.83-.18.55-.15,1.39-.78,1.7-.18-1.34.29-2.78.5-4.04.57-3.45,1.36-7.55,2.12-10.63.19-.76.87-2.07.78-2.77-.05-.38-1.05-1.41-1.49-1.91-5.76-6.58-12.3-12.23-19.27-17.5-2.23-1.69-4.32-3.43-6.52-5.17-.32-.26-.67-.39-.92-.71.61-.55,1.43.31,2.05.64,10.38,5.53,19.52,12.74,27.21,20.91.64-1.71,1.46-3.59,1.77-5.39.04-.3.34-.32.43-.57,1.07-3.07,2.51-5.76,3.75-8.65-1.3-.53-2.77-.29-4.25-.07-.4.67-.28,1.6-.5,2.41-.14.52-.39,1.11-.57,1.63-.18.51-.28,1.31-.85,1.35.04-1.33.65-3.08.35-4.75-.35-.19-.67.52-1.13.21,0-.61.76-.47,1.06-.78.1-1.1-.29-2.3-.57-3.26-1.67-.58-3.36-1.24-5.17-1.84-.51-.17-1.28-.16-1.56-.71,1.11-.14,2.21.47,3.26.85,1.09.4,2.2.78,3.26,1.14-.4-1.36-.92-2.64-1.13-4.04-.07-.42.02-.85-.14-1.28-.22-.57-.86-1.17-1.28-1.77-.85-1.22-1.63-2.38-2.41-3.68-.33-.56-.88-1.21-.78-1.91.76.6,1.05,1.59,1.56,2.41.49.8,1.09,1.56,1.49,2.41.57.3.56,1.19,1.27,1.35-.21-1.43.01-3.29.85-4.18,1.63-1.73,4.62.46,4.68,2.62-.8-.42-2.18-1.28-3.12-.5-.39,1.42-.37,3.03-.21,4.68,2.44,1.77,4.61,3.8,6.73,5.88.28-.31-.14-.9-.21-1.2-2.4-9.95-5.63-19.33-8.08-29.34-1.64-2.07-3.28-4.08-5.18-5.88-1.88-1.79-3.88-3.49-6.16-4.89,0,1.43.6,2.85.78,4.32.03.16.15.23.21.36.48,2.9,1.71,5.42,2.06,8.22-.45-.11-.58-.71-.68-1.06-.82-2.65-1.6-5.89-2.6-8.72v-.49c0-.9-.36-1.93-.52-2.98-.12-.4-.66-.32-.72-.78.15-.38.4-.01.67-.14-.07-1-.71-2.8.01-3.47.44.58.14,1.38.22,2.05.03.26.19.57.22.85.03.32-.07.65,0,.85.14.42.95.82,1.42,1.13,1.47,1,2.92,2.25,4.18,3.26-.42-1.35-1.26-2.65-1.84-4.11-.58-1.46-1.14-3.03-1.2-4.75.58.02.31.82.37,1.13.59,3,2.2,5.72,3.2,8.01v.57c2,1.57,3.39,3.38,4.88,5.17.13-.57-.32-1.65-.47-2.41-.11-.2-.23-.05-.45-.21-3.28-10.36-8.15-19.16-14.14-26.86-.39-.5-.98-.94-1.06-1.63.66.12.92.81,1.28,1.27,3.96,5.08,7.6,10.75,10.49,17.01,1.05,2.28,1.94,4.65,3.05,6.95-.39-.74-.6-2.48-1.26-3.19-.63-3.97-1.33-8.04-2.33-11.69v-.57c0-1.8-1-3.95-1-5.67v-.5c-1-.99-.47-2.25-.89-3.19-.02-1.31-.95-2.43-.62-3.61.41.16.4.72.5,1.06,1.14,3.8,2,8.22,2.98,12.26.2,1.57.48,3.07.85,4.47.25-.55-.03-1.19-.07-1.84-.04-.62.1-1.27,0-1.84-.04-.24-.22-.41-.28-.64-.16-.55-.08-1.16-.14-1.77-.29-2.79-.81-5.76-1.35-8.58-.7-3.7-1.35-7.23-2.27-10.63-.75-2.81-1.68-5.58-2.76-8.15-.34-.81-.96-1.53-1.06-2.41.8.2.86,1.16,1.13,1.77.29.65.74,1.32,1.01,1.99,1.63,4.07,1.98,8.88,3.98,13.46v.57c0,2.85.92,6.27,1.55,9.28.02-5.92.37-12.08.81-17.51.07-.83.1-1.96.55-2.2.35.66,0,1.41-.08,2.13-1.05,10.33-1.38,24.62.84,34.44-.08.41-.07.9.21,1.13.4-.83.31-1.7.43-2.62.15-1.22.64-2.47.71-3.75.06-1.28-.22-2.81-.35-4.32-.21-2.4-.23-5.18-.21-7.09-.25-2.42-.26-6.23-.14-8.79.02-.46-.2-.97.21-1.35.63.43.2,1.2.14,1.84-.21,2.32.2,5.16.21,7.3.4-.01.33-.5.42-.78.29-.85.68-2.02.85-3.18.13-.85-.08-1.76.36-2.48.52.53.22,1.44.14,2.13-.24,2.04-.99,4.17-1.77,5.67.07,3.23.29,6.29.42,9.14.59-1.77,1.12-4.14,1.7-6.09.2-.69.61-1.46.57-1.98-.03-.43-.51-.71-.42-1.13.54-.19.32.39.71.35.34-.53.17-1.58.92-1.7.04.8-.46,1.67-.71,2.41,2.28,4.68,4.79,9.14,8.29,12.61,4.85,3.53,8.55,8.23,12.19,12.97,1,.8,2.03,1.55,3.05,2.34-.75-1.42-1.71-2.69-2.55-4.11-.85-1.43-1.42-3.03-2.27-4.46-2.38-3.99-4.54-8.14-6.95-12.12-.6-1-1.15-1.95-1.77-2.98-.16-.27-.51-.62-.43-.99.67,0,.82.85,1.06,1.27,2.02,3.48,4.28,7.29,6.31,10.85-.15-1.17-.62-2.37-.99-3.62-.36-1.21-.75-2.51-.99-3.76-.18-.93-.4-1.98-.29-2.91.52,0,.45.71.5.99,1.5,9.25,5.17,17.1,10.06,23.1,1.72,2.12,3.55,4.1,5.31,6.17-.43-1.65-1.16-3.27-1.63-5.03-.48-1.8-.84-3.53-1.56-5.18-1.18-2.72-2.4-5.52-4.39-7.51-.26-.26-.75-.44-.71-.92.43-.12.74.38.99.63,1.9,1.89,3.25,4.79,4.46,7.45.14-1.16-.15-2.5-.21-3.9-.05-1.06-.12-2.24.28-3.05.4.11.2.65.21.85.06,1.55.05,3.06.14,4.53.23,3.71,1.23,7.4,2.34,10.42.63,1.72,1.49,3.27,2.27,4.96,1.72,3.72,2.91,8.27,3.54,13.32.56,4.51.49,10.07-.14,14.53.88.47,1.96.36,2.76.78.75.39,1.11,1.08,1.7,1.56.04-1.03-.26-2.23-.5-3.4-1.1-5.43-1.74-13.21-.21-18.99-.71.22-.73,1.47-1.49,1.42.14-.82.65-1.59,1.07-2.41.17-.35.38-.77.56-1.2.18-.42.48-.91.5-1.28.03-.6-.43-1.69-.71-2.55-1.84-5.64-3.74-11.37-6.1-16.3-3.58-7.51-7.4-13.83-12.12-19.91-.92-1.19-1.92-2.4-2.91-3.47-4.13-4.53-8.25-8.66-12.9-12.68-1.99-1.72-3.87-3.55-5.88-5.32-.25-.21-.66-.53-.64-.92.66,0,1.24.46,1.77.78,8.31,5,15.5,11.47,21.76,18.64,6.67,7.66,12.21,16.58,16.44,26.58.23-.32-.38-.93,0-1.21.54.21.51.92.64,1.42.39,1.47.72,3.43,1.21,4.89.54-1.58.73-2.97.56-5.03-.2-2.65-.87-5.65-.99-8.15-.06-1.19.15-2.38.07-3.47-.11-1.51-1.13-3.63-1.77-4.89-2.23-4.35-5.9-7.5-10.2-9.64-.5-.1-1.29-.26-1.21-.71.48-.13,1.06.16,1.49.36,4.27,1.94,7.91,5.4,10.14,9.42.53.97.78,2.11,1.42,3.05-.27-4.65-1.34-9.04-2.83-12.9-.36-.93-.7-1.95-1.14-2.69-.42-.72-1.11-1.36-1.7-1.98-1.2-1.28-2.28-2.57-3.54-3.83-.61-.6-1.34-1.18-1.7-1.98.71.08,1.15.81,1.63,1.27,1.46,1.44,2.92,3.14,4.39,4.61-2-4.6-4.69-8.68-7.51-12.54-.37-.51-.95-.97-1.06-1.63.5,0,.75.54,1,.85,2.89,3.68,5.55,7.91,7.72,12.4.79,1.64,1.41,3.39,2.27,5.03-.18-4.33-.86-8.78-1.49-12.9-.29-1.03-.51-2.3-.85-3.4-.1-.3-.28-.67-.14-.92.81.33.8,1.73,1.06,2.76.93,3.71,1.44,8.32,1.84,12.62.23,2.54.03,4.76,1.13,6.45-.07-6.79.45-13.3,1.98-18.71.39-1.37.77-2.75,1.42-3.9.54.2.08.85,0,1.06-.95,2.52-1.75,5.6-2.2,8.79-.65,4.61-1.22,10.55-.42,15.66.45,2.92.67,5.99.99,8.65.36-.12.17-.87.21-1.28.27-2.54.96-5.36,1.35-7.87.12-.28.27-.53.21-.99,1.04-3.84,2.17-7.75,3.48-11.41.14-.39.21-1.19.78-1.21.07.61-.26,1.27-.5,1.91-.69,1.88-1.41,4.08-2.05,6.03-.97,3.96-2.02,7.86-2.55,12.26,1.71-3.72,3.2-7.71,4.96-11.48.23-.48.37-1.19.92-1.42.14.66-.37,1.26-.64,1.84-1.39,3.05-2.87,6.41-4.11,9.71-.75,1.99-2.01,3.73-1.7,6.45.12,1.02.55,2,.78,3.04.22,1.02.47,2.05.63,3.19.66-.17.46-1.2,1.28-1.21-.17,1.17-1.39,1.66-.85,3.12.39-.12.26-.69.36-1.06.21-.79.53-1.27.92-1.91.18-.31.25-.67.43-.85.71-.73,2.03-.84,3.05-.14.38-2.7.7-5.91.42-8.93-.1-1.15-.12-2.37,0-3.4.47.23.46,1.16.5,1.63.23,2.89,0,6.47-.21,9.36,1.76-5.12,2.93-11.35,4.89-16.51.28-.73.74-1.42.92-2.13.19-.75.02-1.59.07-2.2.34-4.41-.5-9.08-1.63-12.76-.44-1.44-1.19-2.73-1.49-4.11.61.21.89,1.21,1.13,1.84.79,2.04,1.42,4.52,1.98,6.88.11-3.49,1.04-7.18,1.21-10.63.08-1.72-.27-3.57-.85-4.89-.23-.51-.8-.81-.78-1.41.88.32,1.3,1.39,1.56,2.27.36,1.23.58,2.69.49,4.18-.03.58-.22,1.18-.28,1.77-.36,3.26-.7,6.62-.99,9.85-.06.63-.04,1.29,0,1.92.12,1.86.26,3.69.28,5.38,2.45-5.53,3.96-12.05,4.75-19.2.12-1.11.36-2.95.43-4.4.03-.71-.2-1.5.21-2.13.65.34.2,1.86.14,2.48-.22,2.38-.27,5.1-.64,7.37.69-1.75,1.54-3.51,2.34-5.24.79-1.7,1.57-3.47,2.69-4.82.28-.34.71-.75,1.21-.85-.06.58-.78,1.1-1.21,1.56-2.15,3.69-4.21,7.8-5.6,12.33-.54,1.76-.54,3.68-1.35,5.39-.34,2.29-1.25,4-1.77,6.1,1.55-1.81,2.74-3.9,4.25-5.81,1.51-1.91,2.83-3.96,4.04-6.16,2.83-5.12,5.42-10.73,6.38-17.72.09-.66.16-1.57.21-2.34.03-.38-.22-1.02.29-1.2.44.26.17.86.14,1.27-.23,2.81-.73,5.52-1.41,7.87.82-.59.87-1.97,1.56-2.69,1.34-2.88,2.69-5.76,4.46-8.22.16-.19.02-.69.36-.71.48.65-.29,1.19-.57,1.63-1.95,3.06-3.52,6.84-5.24,10.27-.4.8-.65,1.59-1.28,2.05-1.37,4.39-3.41,8.12-5.46,11.84,1.16-.77,1.92-1.95,3.12-2.69,3.43-5.81,7.45-11.5,12.12-16.23.68-.69,1.12-1.59,1.77-2.27,1.33-1.4,3.44-2.58,5.46-3.4.64-.26,1.4-.74,2.13-.5-.12.51-.66.39-.99.5-2.22.72-4.35,1.96-5.81,3.47.88-.09,2.23-1.06,3.4-.64-.08.6-.56.29-.85.35-2.07.42-4.17,1.45-4.89,3.33-.22.01-.52-.05-.64.07-3.87,4.26-7.26,8.99-10.42,13.96.97-.54,1.81-1.26,2.7-1.91,2.57-1.9,5.25-3.85,8.22-5.46,3.21-2,6.86-3.75,10.56-5.39.46-.2,1-.67,1.56-.42-.58.74-1.59.84-2.41,1.2-2.38,1.07-4.83,2.38-7.09,3.61-3.12,1.65-6.01,3.53-8.86,5.46.23.42.75.04,1.06,0,2.75-.34,5.41.83,7.09,1.99.37.25.98.42.92.92-.93-.27-1.71-1.04-2.7-1.49-2-.92-5.77-1.41-8.01-.21-3.72,2.87-7.35,5.97-10.28,9.71-.48.62-.93,1.29-1.42,1.92-.47.6-1.03,1.16-1.21,1.91.53-.31.98-.75,1.49-1.13,2.53-1.94,5.51-3.66,9.07-4.75,2.14-.65,4.32-1.22,6.8-1.49,1.75-.18,3.84-.39,5.59,0-.06.5-.61.29-.99.28-9.23-.05-16.37,2.84-21.47,7.23-.63.54-1.51,1.29-1.84,1.91-.46.86-.98,2.01-1.49,3.19-.79,1.82-1.32,3.31-1.56,5.6.03.29-.33.19-.5.29-.43,1.53-.83,3.09-1.2,4.68.99-.5,1.82-1.78,3.19-1.77,1.08,0,1.72.95,2.34,1.7,1.49-2.85,2.26-6.44,3.19-9.85.14-.9.22-1.86.64-2.48.49.31.09,1.05,0,1.49-.72,3.5-1.63,7.07-2.98,10.28-.17.41-.46.76-.49,1.06-.09.81.53,1.61.42,2.62-.17,1.58-.27,3.54-.64,5.31,1.47-.82,2.57-2.01,3.9-2.98.02-.62-.67-1.79-.42-2.41.63.16.52,1.32.78,1.99.78-.21,1.21-.78,1.77-1.21-.42-2.46-.8-5.19-1.27-7.58-.09-.45-.43-.9-.14-1.35.56.18.54.99.64,1.49.45,2.28.78,4.78,1.21,7.08,1.1-.38,1.83-1.53,2.91-1.7.01.52-.8.87-1.28,1.2-.52.36-1.07.75-1.56,1.06.7,4.9,1.17,10.03,1.35,15.45.52-.2.3-1,.35-1.42.02-.19.12-.37.14-.57,1.3-9.14,2.5-19.94,1.07-29.91-.22-1.49-.62-3.37-.71-5.03.61-.07.52,1.09.64,1.7,1.27,6.43,1.36,15.59.85,23.03.99-2.29,1.14-5.29,1.49-8.15.32-2.59.58-5.23,1.13-7.51.13-1.5.38-2.88.78-4.11-.02-.71.26-1.4.42-2.05.15-.61.13-1.41.71-1.7.25.45-.19,1.28-.36,1.77-1.08,5.37-2.05,10.85-2.62,16.73.93-1.63,1.37-3.46,2.13-5.17,2-4.54,4.25-8.98,6.87-13.04.2-.31.41-.91.92-.85-.17.68-.63,1.26-.99,1.84-1.73,2.8-3.55,5.81-4.96,9-.58,1.31-1,2.62-1.54,3.97.01.06.08.07.08.07v.08ZM44.42,39.7c-.39,1.45-.51,3.78-.71,5.46-.12,1-.38,1.76.21,2.41.27-1.5.66-2.88.99-4.32-.21-.21-.72-.13-.56-.71.43-.09.5.17.85.14.38-.69.52-1.97,1.28-2.05-.02.14.1.14.14.21-.33.67-.68,1.3-.92,2.06,7.44,2.88,14.42,6.23,20.55,10.42-1.37-2.05-3.05-3.91-4.75-5.74-1.71-1.85-3.43-3.67-5.46-5.24-4.07-3.16-6.35-7.82-8.86-12.54-.1-.02-.12-.12-.21-.14-1.01,2.71-1.7,6.9-2.55,10.06ZM45.48,43.45c-.4,1.21-.83,2.86-1.06,4.32-.28,1.79.56,2.85,1.06,4.32.75,2.19,1.47,4.24,2.13,6.24.35,1.06.53,2.18,1.13,3.05,3.38-1.26,5.42,1.48,6.73,3.54,1.32,2.07,2,4.25,2.26,7.3.29,3.35.3,6.88.14,9.92.86-.05,1.5.11,2.34.07.2-.04-.1-.57.29-.43.34-.06.1.46.35.5,1.16.11,1.77.65,2.62,1.34,2.94,2.39,5.28,5.47,7.37,8.43.89,1.26,1.58,2.63,2.55,3.75.31-3.05-.57-5.03-1.63-7.09-1.62-3.13-4.15-5.54-7.16-7.01-.62-.3-1.53-.45-1.77-1.06.63-.25,1.27.24,1.77.5,4.04,2.08,6.99,5.26,8.72,9.5-.31-4.68-1.83-8.67-3.12-12.05-.12-.32-.54-.63-.78-.92-1.16-1.39-2.32-2.7-3.54-3.9-.45-.44-1.13-.86-1.27-1.56.53-.13.95.46,1.27.78,1.12,1.12,2.09,2.42,3.26,3.4-1.62-3.44-3.73-6.85-5.95-9.64-.25-.31-.93-.86-.5-1.34,3.6,4.05,6.29,9.02,8.58,14.39-.23-4.14-.79-8.32-1.63-11.7-.14-.57-.46-1.27-.21-1.77.57.07.53.79.64,1.21.58,2.29.97,4.95,1.28,7.65.34,2.92.45,6.02,1.21,8.5.13-2.46.01-5.32.29-7.8.32-2.9,1.01-5.81,1.77-8.29.19-.61.17-1.79,1.06-1.77-1.95,5.38-3.06,13.24-2.41,20.2.19,2.07.7,4.37.85,6.52.68-5.99,2.25-11.34,3.97-16.23.18-.49.17-1.36.85-1.49.28.61-.31,1.18-.5,1.7-.28.76-.51,1.6-.78,2.41-.8,2.45-1.44,5.01-1.91,7.65-.38,1.11-.7,2.66-.71,3.9,1.07-2.58,1.98-4.97,3.19-7.58.1-.21.97-2.4,1.28-2.2.42.29-.44,1.51-.43,1.49-1.23,2.75-2.24,5.24-3.33,7.86-.39.93-1.04,2.32-1.21,3.26-.3,1.68.11,2.35.43,3.69.34,1.44.29,2.65,1.2,3.33.45-.44.83-.88,1.49-.92,1.29-.07,2.12,1.29,2.91,1.84,1.18-5.34,1.99-12.01,1.42-18.5-.53-5.98-1.46-11-3.47-15.45-.56-1.23-1.11-2.79-1.77-3.47-.52-.53-1.58-1.07-2.55-1.56-2.6-1.31-6.19-1.82-9.85-.92-2.33.74-4.58,1.66-6.45,2.76-.6.35-1.14,1.14-1.91.92.93-1.2,2.67-1.91,4.32-2.69,1.59-.75,3.46-1.56,5.32-1.77,1.27-.14,2.73-.38,4.11-.21,2.28.28,4.27,1.06,5.88,2.06-3.16-4.3-7.55-7.38-12.05-10.35-2.66-.99-6.25-.82-8.72,0-.68.23-1.4.69-2.06.5.36-.61,1.27-.87,2.13-1.13,1.99-.61,4.67-.76,6.73-.5-5.06-2.83-10.3-5.47-16.15-7.51ZM102.6,43.81c-1.34-.02-2.19.45-2.97.99-.19,1.83-.67,3.71-.92,5.53-.23,1.67-.45,3.21-.43,4.54,1.56-3.22,3.29-6.26,5.39-8.93-.26-.8-.3-1.82-1.06-2.12ZM103.53,47.26c-1.46,2-3,4.47-4.25,6.96-.7,1.37-1.53,2.36-1.35,4.15,1.12-1.19,2.42-2.52,3.69-3.66.41-.37,1.07-.86,1.28-1.23.2-.37.29-.95.42-1.51.34-1.5.47-2.7.43-4.7h-.21ZM111.82,46.85c-.47.4-1.04.72-1.49,1.14,1.01,3.62,1.77,7.49,2.69,11.2-.08-4.14-.46-8.61-1.2-12.33ZM109.76,49.26c-1.37,1-2.6,1.7-3.97,2.7-.23,1.33-.8,2.48-1.06,3.55,1.55-.03,3.92-.47,4.82.39-.34.45-.93,0-1.49-.05-1.13-.11-2.49,0-3.54.04-1.08,3.18-1.17,7.83-.15,11.12,1.26.26,2.44.49,3.47.84.57.19,1.31.31,1.56.85-.24.39-.75.02-.99-.07-2.94-1.13-7.53-1.91-10.99-1.14.06,4.7.5,9.26.78,13.61.43-.4,1.2-.37,1.63-.43-.19-1.69-1.37-2.41-1.7-3.97.18,0,.1-.28.28-.28,1.59.29,2.17,1.54,2.98,2.69.58.83,1.13,1.62,1.56,2.48.94,1.85,1.64,3.93,2.05,6.02.27-2.09,1.94-.91,2.05.57.57-2.35,1.38-4.68,2.06-7.02.69-2.37,1.19-4.79,2.27-6.87.3-1.81.65-3.56,1.13-5.17.43-2.13.98-3.95.71-6.31-.16-1.36-.64-2.26-.92-3.62-.74-3.53-1.56-6.93-2.41-9.93h-.14ZM96.93,50.18c.13.97-1.13,2.29-.14,2.77,0-1.03.47-1.99.29-2.98,0,.12-.06.18-.15.21ZM100.55,56.42c.45-.08,1.14-.51,1.77-.64,0-.39.51-1.14.07-1.28-.52.74-1.34,1.16-1.84,1.91ZM94.88,55.26c-1.03,1-1.09,2.01-1.42,3.31-.55,2.14-1.44,4.33-1.21,6.17,1.22-2.84,2.32-5.48,2.77-9.48h-.14ZM94.24,62.52c.38-.49.92-.95,1.21-1.49.72-1.36.95-3.71.92-5.67-.23-.08-.5-.4-.71-.28-.66,3.16-1.45,6.2-2.62,8.86.51-.29.79-.88,1.2-1.42ZM97.85,59.61c-.27.65-.24,1.62-.29,2.55-.07,1.71-.06,3.09-.07,4.71,2-.13,3.9.16,6.16.44-1.27-2.81-2.25-7.05-1.49-10.05h-.14c-1.29,0-3.72,1.21-4.18,2.35ZM89.35,64.64c.47-1.13-.14-2.64-.07-4.04-.09,0-.1-.09-.22-.07-.39,1.38-.48,3.08.29,4.11ZM94.03,63.72c-.4.53-1.52,1.67-1.63,2.27-.14.74.31,1.56.28,2.48,1.04-.44,2.13-.85,3.12-1.35-.05-1.75,0-4.01.21-5.74-.02-.05-.06-.08-.14-.07-.58.67-1.09,1.42-1.84,2.41ZM54.56,82.36c.56-.15,1.43.02,1.77-.36.1-7.21-.65-13.67-4.46-17.22-.98-.91-1.62-1.9-2.91-2.27,1.96,6.52,3.73,13.23,5.6,19.84ZM123.29,102.13c1.99-2.68,3.99-5.06,6.17-7.58.36-.42.83-.84,1.34-1.41.32-.35,1.17-1.25,1.21-1.56.03-.28-.33-1-.5-1.49-1.28-3.65-2.14-7.48-2.77-11.55-.19-2.45-.65-5.21-.85-7.59-.21-2.44-1.13-4.68-1.84-6.68h-.14s0,.22-.07.23c-2.5,3.2-4.45,7.08-5.6,11.63,1.35,2.28,2.66,5.09,2.84,8.51.14,2.73.02,5.89-.21,8.9-.09,1.1-.4,2.23-.57,3.35-.33,2.17-.17,4.4-.21,6.74.57-.34.84-.99,1.2-1.48ZM92.68,69.32c.33,2.42.61,4.8.78,7.3.1,1.46.02,3,.21,4.54.15,1.13.53,2.3.78,3.47.26,1.19.44,2.45.64,3.68,1.05,6.56,1.88,14.92.71,21.83-.12.68-.35,1.41-.28,1.92.06.51.48,1.05.71,1.56.24.53.4,1.08.78,1.49.33-1.99.87-4.05,1.42-5.88.19-.64.52-1.36.57-1.91.07-.85-.06-2.04-.14-3.05-.97-11.43-2.73-23.95-3.19-36.36-.96.23-2.29.69-2.98,1.42ZM88.92,93.79c.48-.66.7-1.34,1.06-2.1.36-.73,1-1.45,1.13-2.15.13-.67,0-1.5,0-2.24,0-2.1-.2-3.57-.56-5.14-.58-2.56-1.42-4.9-1.91-7.9h-.21c-1.26,6-.96,14.19.5,19.53ZM47.47,83.14c1.11.64,2.39,1.05,3.54,1.63.53.27.98.83,1.63.71.5-.64-.75-1.46-1.21-1.92-1.49-1.48-3.1-3.08-4.68-4.04-.01-.05-.06-.08-.14-.07.23,1.28.68,2.34.85,3.69ZM121.45,104.54c.03-.52-.42-1.18-.57-1.84-.56-2.5-.36-5.02-.14-7.94.36-4.85-.25-9.59-1.28-12.95-.33-.12-.23-.55-.57-.55h-.14c-2.5,10-4.49,20.61-7.51,30.24.74-.74,1.36-1.92,2.26-2.88.72-.76,1.73-2.11,2.76-2.32,1.15-.24,2.68-.18,4.04-.03.32-.51,1.09-1.04,1.14-1.73ZM98.99,90.51c1.36-.73,2.26.6,2.97,1.2-.33-2.41-2.32-3.77-3.05-6.02.57-.79,1.61.27,2.2.14.09-1.39-1.19-1.84-1.84-2.62-.37-.45-.61-1.21-.99-1.56.16,3.03.41,5.97.71,8.86ZM47.82,85.62c.99-.1,2.12-.39,3.05-.14-.9-.71-2.05-1.17-3.26-1.56,0,.63.28.99.21,1.7ZM59.73,89.26h-.21c-.13,0-.5.19-.57.59,1.27,1.29,2.52,2.72,3.75,4.03-.42-1.88-2.04-3.62-2.97-4.62ZM59.94,91.29c-.44-.43-1.09-.87-1.56-1.21-.37.55-.94.91-1.2,1.56,1.54.09,2.8.46,3.9.99-.29-.5-.72-.94-1.13-1.35ZM57.13,92.42c1,2.22,1,4.53,2,6.66v.5c0,.49.33,1.24.52,1.91.15.57.23,1.62.61,1.77.39-1.43.79-2.83,1.55-3.9.84-.29,2.19-.28,2.97-.42-.85-2.26-1.6-4.56-3.53-5.6-1.05-.56-2.1-1.14-4.1-1.13v.21ZM89.56,96.96c0,1.12.7,2.64.99,3.62.1.34.11.9.49,1.06.1-2.87.16-6.62,0-9.07-.29,1.41-1.5,2.78-1.49,4.39ZM99.41,95.68c.79.22.8,1.6,1.49,1.7-.29-1.63-.59-3.24-1.7-4.04.05.8.16,1.54.21,2.34ZM59.44,111.2c0-.97-.34-1.45-.5-2.16-1.13-5.17-2.21-9.78-3.4-14.78h-.22c-2.23,3-4.36,6.38-6.17,10.03,3.2,3.7,6.16,7.69,8.79,11.89.38.6.67,1.24,1.21,1.73,0-2.38.29-4.53.28-6.7ZM66.46,99.15c-.1-1.01-.92-1.91-1.49-2.69.55.85.63,2.16,1.49,2.69ZM80.42,109.76c1.25,2.84,2.29,5.72,3.4,8.69.88-2.26,2.16-5.18,2.27-8.37.08-2.34.63-5.11.21-7.56-.17-1.03-.9-1.77-1.27-2.81-.42-1.14-.81-2.46-1.77-2.46h-.14c-.69,4-1.73,8.29-2.7,12.5ZM77.51,103.2c.57.85.94,1.92,1.35,2.83.13.29.31.67.56.85.32-1.26.66-2.88.78-4.11-.7-.76-2.63-1.09-2.7.43ZM89.35,109.5c-.16.66-.49,1.27-.71,1.91-.22.63-.58,1.38-.64,1.99-.12,1.19.29,2.54.43,3.75.37,3.3.82,6.3,1.28,9.29.09.58,0,1.26.35,1.77.04-3.15.67-5.85.92-9.21.23-2.96,0-6.56,0-9.57,0-1.11.16-2.31,0-3.19-.08-.41-.48-.95-.71-1.49-.27-.62-.38-1.39-.71-1.7.18,2.15.26,4.48-.21,6.45ZM63.84,110c1.12,1.21,1.98,2.69,3.26,3.75.07-2.48-.19-4.2-.28-6.52-.45-.66-.73-1.49-1.27-2.05-.78,1.39-1.5,2.85-1.7,4.82ZM101.68,106.88c.57-.18.73-.79.85-1.42-.52.23-.56.96-.85,1.42ZM108.84,125.8c-.33.77-.77,1.56-.71,2.41,2.45-6.57,5.93-12.12,9.36-17.72-.09,0-.1-.09-.21-.07-3.24,4.57-6.1,9.98-8.44,15.38ZM68.3,115.46c.07.35.51.78.71,1.06.26.36.47.81.85.92-.54-1.89-.74-4.12-1.49-5.81.37,1.35-.29,2.74-.07,3.83ZM62.77,115.17c0,.63.33,1.45.5,2.2.51,2.29,1.1,4.6,1.56,6.73.28.14.54.31.92.35.41-2.42.73-4.94.99-7.51-1.1-1.57-2.2-3.14-3.33-4.68-.12,1-.65,1.9-.64,2.9ZM119.47,118.01c.78-.66,1.4-1.48,2.12-2.2-.21-.47-.42-.95-.85-1.2-.37,1.19-.82,2.31-1.28,3.4ZM94.38,118.72c-.52,3.31-.5,6.98-.5,10.98,0,7.1-.06,14.68.07,21.48,1.09-6.51.49-13.97,1.06-20.77.38-4.49.86-8.83,1.56-12.83-.61-.88-.94-2.04-1.63-2.83-.18,1.31-.35,2.6-.57,3.97ZM112.17,131.33c.81-.8,1.53-1.68,2.55-2.27.66-5.46,3.25-8.98,5.1-13.25-.02-.05,0-.14-.07-.14-2.79,4.96-5.33,10.16-7.58,15.66ZM120.96,117.3c.48-.09.76-.38,1.27-.42-.1-1.15-1,.07-1.27.42ZM85.67,119.14c-.23.5-.98,1.51-1,1.98,0,.38.39,1.05.57,1.63,1.11,3.58,1.97,7.51,2.91,11.06-.1-2.98-.58-5.62-1.49-7.72-.18-.4-.69-.77-.36-1.28,1.62.99,2,3.2,2.55,5.24-.48-4.37-1.49-8.81-2.19-13.18-.26.65-.59,1.37-.99,2.27ZM99.2,119.28c.34,0,.15-.92.07-.99-.05.18-.09.57-.07.99ZM66.89,124.83c.72.36,1.12,1.19,1.84,1.55.36-2.06,2.22.53,2.62,1.06-.14-1.05-.26-2.47-.42-3.49-.37-2.31-1.94-3.69-2.83-5.69h-.21c-.25,2-.68,4.45-.99,6.57ZM61.85,122.26c-.27-.63-.15-1.64-.57-2.13-.39.87-.29,1.82.57,2.13ZM78.43,126.52c.42,2.23,1.11,4.61,1.35,6.73.11,1.01.35,1.57.71,2.3.26.54.49.99.85,1.37-.84-4.31-1.85-8.66-2.91-12.66h-.21c.13,1,.09,1.56.21,2.26ZM57.67,124.26c-2.14,1-3.86,2.12-4.46,4.39-.37,1.38-.26,2.97-.21,4.42.12,4.33-.07,9.07-1.06,12.31,3.23,3.56,6.27,7.57,8.72,11.79.36.62.59,1.35,1.06,1.93-.37-6.93.48-14.11.78-20.83.05-1.09.21-2.63,0-3.75-.12-.64-.57-1.42-.85-2.12-.86-2.17-1.81-4.4-2.83-6.31-.29.5-.53,1.19-.85,1.77-.28.49-.58,1.14-1.2,1.07.15-1.44.94-2.67,1.13-4.67h-.21ZM65.13,128.28c1,.06,1-.38,0-.35v.35ZM66.1,129.91c.5,2.31,1.33,4.29,1.35,7.08.53,1.11.85,2.41,1.28,3.62.78-.73,1.54-1.49,2.62-1.91-.35-1.78-2.53-1.72-2.48-3.9.45-.41.85-.04,1.28.14-.35-1.38-2.22-1.23-3.05-2.13-.3-1.16.38-1.93,1.56-1.84-.44-.72-1.56-1.13-2.55-1.06ZM89.14,131.33c-.14-.17.02-.63-.14-.78-.18.12-.05.62.14.78ZM89.14,137.42c-.12,1.03.11,1.66.28,2.62.08.43.07.93.14,1.35.06.37.06.88.35,1.07.18-3.75-.34-6.97-.64-10.49-.02-.05-.06-.08-.14-.07-.02,1.51.19,3.8,0,5.53ZM108.42,143.02c.32-1.19.62-2.76.78-3.76h-.21c-.11,1-1.5,2.58-.57,3.76ZM109.33,146.35c.27.43.21,1.21.57,1.56,1.19-2.07,2.74-3.79,5.17-4.61-.11-1.33-.37-2.51-.49-3.82-2.78,1.26-4.52,3.55-5.24,6.87ZM69.93,144.44c.64,2.39,1.34,4.87,1.91,7.23.2.79.26,1.67.64,2.41.44-3.55,1.04-8.78.07-12.4-.88.92-1.9,1.69-2.62,2.76ZM107.13,145.01c0,1.66-.2,3.53-.35,5.39-.25,3.18-.54,6.53-.53,9.36.24-.53.74-1.15.83-1.84.17-1.21-.22-2.69-.22-4.11.01-2.44.08-4.76.28-6.93.06-.65.35-1.61.07-1.61h-.08s0-.33,0-.25ZM74.13,145.22c0,4.87-.39,9.43-.75,13.89-.05.53.06,1.16.12,1.7.46,4.24,1.35,8.6.91,13.39.31.04.42-.31.74-.57.3-.24.77-.34.86-.64.08-.25-.06-1.03-.06-1.56,0-3.68.22-8.18,0-11.77-.13-2.14-.46-4.25-.71-6.46-.31-2.72-.16-5.95-.42-7.95h-.69s0-.11,0-.04ZM63.98,154.29c.39-.45.21-1.2.21-1.84,0-2.1-.19-4.06-.29-5.53-.19,2.04-.11,5.31.07,7.37ZM112.1,149.4c.63-.62,1.12-1.39,1.56-2.2-.73.53-1.23,1.28-1.56,2.2ZM115.86,147.26h-.22s-.03.3-.07.36c-1.2,1.68-2.35,3.63-3.41,5.39-.33.56-1,1.32-.63,2.09.32-.08.52-.88,1.2-.83.52-1.09,1.01-2.2,2.13-2.68.35.5-.26.9-.5,1.28-.28.45-.52.94-.71,1.42.58.1,1.28.09,1.7.35,1.58,2.7-.14,7.3.92,10.48.7-5.79.41-12.87-.42-17.87ZM82.83,154.08c.6-.88.33-1.94.07-3.12-.23-1.02-.58-2.09-.85-2.84.25,1.99.38,4.11.78,5.95ZM67.88,161.87c-.05,1.01-.26,2.33-.07,3.12.15.67.97,1.44,1.35,2.05.48.8.75,1.55,1.2,2.2-.37-5.88-.86-11.66-2.19-16.58,0,2.62-.15,6.39-.28,9.21ZM103.38,155.14c-.46,4.14-.36,8.65-.57,13.18.29-.37.44-.87.5-1.35.4-3.48.25-7.5.57-11.13.08-.92.35-1.81.21-2.69,0-.05-.01-.09-.07-.08-.22.69-.56,1.33-.64,2.06ZM83.25,160.25c.15,1.78.35,3.92.43,5.74.02.44-.08.95,0,1.35.09.41.53.86.78,1.34.63,1.22.97,2.82,1.13,4.32.03.26-.19.77.21.92.45-.53.2-1.15.14-1.77-.51-5.76-.87-12.24-2.2-17.08-.59,1.55-.66,3.2-.5,5.17ZM116,168.32c.18-1.16-.34-1.75-.71-2.76-.24-.66-.52-1.98-.71-2.66-.56-2-.53-4.63-1.06-6.63h-.21c-.57,1-1.07,2.12-.92,3.59.09.86.24,2.13.35,2.99.29,2.19.55,4.76.92,6.53-.05.24-.2.44-.14.78.89-.58,1.61-1.24,2.48-1.84ZM105.22,173.14c.46-1.34.79-2.7,1.14-4.18.43-1.83,1.08-3.86,1.13-5.67-.09,0-.1-.09-.21-.07-1,3.05-2.09,6.02-2.06,9.92ZM110.68,171.16c.52-2.1,1.25-4.56.42-6.88-.1,2.41-1.21,4.6-.42,6.88ZM111.04,174.16c1.16-.49,1.06-2.9.78-3.9h-.21c-.08,1-.57,2.41-.57,3.9ZM115.43,172.26c-.17,1-1.33.98-1.56,1.93-.28,1.19.08,2.67.14,3.98.03.66-.14,1.46.14,2.04.56-2.65,1.11-4.95,1.49-7.95h-.21ZM83.18,182.13c.44-.5.47-1.4.71-2.09.22-.61.65-.98.71-1.65.12-1.42-.51-3.13-.57-4.13h-.22c-.2,3-.36,5.2-.64,7.87ZM67.66,176.9c.4,3.44.25,7.56.99,10.35.41-2.39.97-4.64.57-7.23-.11-.69-.49-1.55-.78-2.41-.35-1.03-.64-2.16-.99-2.62-.12.8.15,1.4.21,1.91ZM107.78,180.65c.42-1.47,1.38-2.39.92-4.39h-.21c-.18,1-1.54,3.05-.71,4.39ZM111.18,178.1c-.17.86.24,1.82.07,2.91.68.36.38,1.7.78,2.34.54-1.87.18-4.64.29-6.94-.01-.06-.06-.08-.14-.07-.17.62-.84,1.03-.99,1.77ZM86.51,183.06c-.08-1.39.06-3.59-.21-5.03-.74,1.24-.28,3.76.21,5.03ZM74.25,180.79c.1-.58-.07-1.48-.28-1.98-.03.79.07,1.44.28,1.98ZM74.47,181.36c0-.22-.03-.39-.14-.5.05.16-.13.55.14.5ZM106.5,183.13c.36-.4.86-1.63.21-1.99-.06.68-.21,1.25-.21,1.99ZM83.68,185.12c-.19.53-.22.96.14,1.13.19-.78.22-1.72.85-2.05.73.65.67,2.35.78,3.4.47-1.27,1.2-2.02,1.06-3.76-.93-.06-.93-1.61-1.49-2.27-.26,1.15-.97,2.51-1.35,3.54ZM75.32,187.46c-.37,1.12.04,3.01,0,4.18.24-.09.64-.02.85-.14.43-2.72-.2-6.1-1.2-8.08.31,1.46-.25,2.96.36,4.04ZM107.99,188.87c.41-.4.35-1.26.5-1.91h-.21c-.03.66-.47,1.28-.28,1.91ZM76.52,195.25c0-.69.07-1.31.14-1.91-.36-.08-.26.31-.43.42-.19,0-.42.04-.42-.14-.04-.37.22-.43.14-.85-1.48.54.03,1.89.57,2.48Z"/>
    </g>
  </g>
</svg>