<?xml version="1.0" encoding="UTF-8"?>
<svg id="Layer_1" data-name="Layer 1" xmlns="http://www.w3.org/2000/svg" viewBox="0 0 168 168">
  <defs>
    <style>
      .cls-1 {
        fill: #231f20;
        font-family: Gotham-Bold, Gotham;
        font-size: 14px;
        font-weight: 700;
      }

      .cls-2 {
        fill: #fff;
      }

      .cls-3 {
        fill: #a9263e;
      }

      .cls-4 {
        letter-spacing: -.02em;
      }

      .cls-5 {
        letter-spacing: -.01em;
      }

      .cls-6 {
        letter-spacing: -.01em;
      }
    </style>
  </defs>
  <text class="cls-1" transform="translate(50.72 80.32)"><tspan x="0" y="0">C</tspan><tspan class="cls-5" x="10.33" y="0">r</tspan><tspan x="15.97" y="0">opping</tspan><tspan class="cls-5" x="7.66" y="16.8">S</tspan><tspan class="cls-4" x="16.41" y="16.8">y</tspan><tspan class="cls-6" x="24.53" y="16.8">s</tspan><tspan class="cls-5" x="31.42" y="16.8">t</tspan><tspan x="37.02" y="16.8">em</tspan></text>
  <g>
    <path class="cls-3" d="M155.95,42.46c22.94,39.74,9.33,90.55-30.41,113.5-39.74,22.94-90.55,9.33-113.5-30.41C-10.9,85.8,2.72,34.99,42.45,12.05c39.74-22.94,90.56-9.33,113.5,30.41Z"/>
    <g>
      <g>
        <path class="cls-2" d="M98.13,41.45l.22-.93-3.39-.81c1.28.53,2.33,1.14,3.17,1.74Z"/>
        <path class="cls-2" d="M125.08,72.33l-15.56,32.89,12.09-.99c-2.38,7.38-6.75,14.06-12.7,19.22-7.78,6.75-17.74,10.47-28.06,10.47-23.61,0-42.82-19.21-42.82-42.82s19.21-42.83,42.82-42.83c3.39,0,6.76.39,10.01,1.17l5.07,1.21,1.67-6.97c-14.49-2.97-21.53-1.64-41.43,5.52-9.94,3.58-17.57,11.02-22.89,17.96-3.64,7.2-5.69,15.33-5.69,23.92,0,29.36,23.89,53.25,53.25,53.25,12.83,0,25.22-4.62,34.89-13.02,8.48-7.36,14.39-17.18,16.94-28l13.11-1.07-20.71-29.92Z"/>
        <path class="cls-2" d="M85.86,38.08c-1.67-.15-3.34-.24-5.02-.24-9.29,0-17.42,2.15-25.03,6.36,8.17-3.21,18.35-6.12,30.05-6.12Z"/>
      </g>
      <path class="cls-2" d="M84.58,23.69c-11.24.78-27.03,10.46-28.77,20.51,8.1-3.13,18.66-6.12,30.07-6.12s15.22,6.37,15.22,6.37c-16.98-3.9-23.49-2.96-44.92,4.76,3.06,10.85,9.35,15.12,16.69,17.4,17.7,5.48,29.84-13.09,58.08-13.75,0,0-27.58-30.46-46.36-29.17Z"/>
    </g>
  </g>
</svg>